<?xml version="1.0" encoding="UTF-8"?>
<svg id="_レイヤー_2" data-name="レイヤー 2" xmlns="http://www.w3.org/2000/svg" viewBox="0 0 175.75 259.11">
  <defs>
    <style>
      .cls-1 {
        fill: #0052a1;
      }

      .cls-1, .cls-2 {
        stroke-width: 0px;
      }

      .cls-2 {
        fill: #f8a2a7;
      }
    </style>
  </defs>
  <g id="design">
    <g>
      <g>
        <path class="cls-1" d="m0,49.98C0,28.1,17.8,10.31,39.67,10.31s39.67,17.8,39.67,39.67-17.8,39.67-39.67,39.67S0,71.85,0,49.98Zm65.45,0c0-14.21-11.56-25.78-25.78-25.78s-25.78,11.56-25.78,25.78,11.56,25.78,25.78,25.78,25.78-11.56,25.78-25.78Z"/>
        <path class="cls-1" d="m125.78,0c21.87,0,39.67,17.8,39.67,39.67s-17.8,39.67-39.67,39.67-39.67-17.8-39.67-39.67S103.9,0,125.78,0Zm0,65.45c14.21,0,25.78-11.56,25.78-25.78s-11.56-25.78-25.78-25.78-25.78,11.56-25.78,25.78,11.56,25.78,25.78,25.78Z"/>
        <path class="cls-1" d="m175.75,125.78c0,21.87-17.8,39.67-39.67,39.67s-39.67-17.8-39.67-39.67,17.8-39.67,39.67-39.67,39.67,17.8,39.67,39.67Zm-65.45,0c0,14.21,11.56,25.78,25.78,25.78s25.78-11.56,25.78-25.78-11.56-25.78-25.78-25.78-25.78,11.56-25.78,25.78Z"/>
        <path class="cls-1" d="m49.91,175.75c-21.87,0-39.67-17.8-39.67-39.67s17.8-39.67,39.67-39.67,39.67,17.8,39.67,39.67-17.8,39.67-39.67,39.67Zm0-65.45c-14.21,0-25.78,11.56-25.78,25.78s11.56,25.78,25.78,25.78,25.78-11.56,25.78-25.78-11.56-25.78-25.78-25.78Z"/>
      </g>
      <g>
        <circle class="cls-2" cx="62.81" cy="26.84" r="19.83" transform="translate(6.96 66.16) rotate(-58.28)"/>
        <circle class="cls-2" cx="148.92" cy="62.81" r="19.83" transform="translate(17.2 156.46) rotate(-58.28)"/>
        <circle class="cls-2" cx="112.94" cy="148.92" r="19.83" transform="translate(-73.11 166.7) rotate(-58.28)"/>
        <circle class="cls-2" cx="26.77" cy="112.95" r="19.83" transform="translate(-83.38 76.34) rotate(-58.28)"/>
      </g>
      <g>
        <g>
          <path class="cls-1" d="m111.6,207.3c-1.46-1.34-3.19-2.42-5.13-3.2-1.94-.79-4.07-1.19-6.31-1.19s-4.31.4-6.25,1.19c-1.94.79-3.67,1.86-5.13,3.2-1.47,1.34-2.63,2.95-3.47,4.77-.84,1.82-1.26,3.8-1.26,5.87s.43,4.05,1.26,5.87c.84,1.82,2,3.42,3.47,4.77,1.47,1.34,3.19,2.42,5.13,3.2,1.94.79,4.04,1.19,6.25,1.19s4.37-.4,6.31-1.19c1.94-.78,3.66-1.86,5.13-3.2,1.47-1.34,2.63-2.95,3.47-4.77.84-1.83,1.26-3.8,1.26-5.87s-.43-4.04-1.26-5.87c-.84-1.82-2.01-3.42-3.47-4.77Zm-11.38,18.47c-4.28,0-7.77-3.51-7.77-7.83s3.48-7.83,7.77-7.83,7.77,3.51,7.77,7.83-3.48,7.83-7.77,7.83Z"/>
          <path class="cls-1" d="m147.53,207.3c-1.46-1.34-3.19-2.42-5.13-3.2-1.94-.79-4.07-1.19-6.31-1.19s-4.31.4-6.25,1.19c-1.94.79-3.67,1.86-5.13,3.2-1.47,1.34-2.63,2.95-3.47,4.77-.84,1.82-1.26,3.8-1.26,5.87s.43,4.05,1.26,5.87c.84,1.82,2,3.42,3.47,4.77,1.47,1.34,3.19,2.42,5.13,3.2,1.94.79,4.04,1.19,6.25,1.19s4.37-.4,6.31-1.19c1.94-.78,3.66-1.86,5.13-3.2,1.47-1.34,2.63-2.95,3.47-4.77.84-1.83,1.26-3.8,1.26-5.87s-.43-4.04-1.26-5.87c-.84-1.82-2.01-3.42-3.47-4.77Zm-11.38,18.47c-4.28,0-7.77-3.51-7.77-7.83s3.48-7.83,7.77-7.83,7.77,3.51,7.77,7.83-3.48,7.83-7.77,7.83Z"/>
          <polygon class="cls-1" points="10.24 199.38 22.95 199.38 22.95 232.3 31.42 232.3 31.42 199.38 44.12 199.38 44.12 191.97 10.24 191.97 10.24 199.38"/>
          <path class="cls-1" d="m74.95,204.93c-.88-.69-1.92-1.2-3.11-1.53-1.19-.33-2.46-.49-3.8-.49-1.08,0-2.15.1-3.23.29-1.08.19-2.14.52-3.2.98-1.06.46-2.15,1.05-3.28,1.76-.36.23-.73.48-1.1.74v-14.71h-8.47v40.33h8.47v-19.94c1-.72,2-1.31,3-1.72,1.4-.58,2.87-.86,4.41-.86.73,0,1.4.11,2.02.32.61.21,1.15.51,1.61.89.54.46.95,1.06,1.24,1.79.29.73.43,1.58.43,2.54v17h8.47v-19.48c0-1.88-.31-3.46-.92-4.72-.62-1.27-1.46-2.32-2.54-3.17Z"/>
          <path class="cls-1" d="m167.34,203.49v-7.78h-8.53v7.78h-4.23v6.45h4.23v12.91c0,1.54.22,2.89.66,4.06.44,1.17,1.05,2.16,1.82,2.97.42.5.92.94,1.5,1.33.58.38,1.18.69,1.82.92.63.23,1.3.41,1.99.55.69.13,1.4.2,2.13.2,1.38,0,2.77-.18,4.15-.55.96-.25,1.92-.63,2.88-1.06v-6.3c-.55.28-1.13.53-1.76.73-.67.21-1.35.32-2.05.32-.35,0-.69-.04-1.04-.12-.35-.08-.66-.18-.95-.32-.29-.13-.57-.29-.84-.46-.27-.17-.52-.37-.75-.61-.35-.38-.6-.83-.78-1.35-.17-.52-.26-1.1-.26-1.76v-11.47h8.41v-6.45h-8.41Z"/>
        </g>
        <g>
          <path class="cls-1" d="m64.96,256.33c4.24-1.71,8.58-5.17,10.81-10.86h-9.62v-2.99h13.84c-.54,3.05-1.8,5.93-3.59,8.47,3.03,2.22,4.76,3.79,6.5,5.55l-2.68,2.62c-2.42-2.8-4.36-4.68-5.73-5.79-2.16,2.42-4.74,4.42-7.73,5.67l-1.8-2.66Z"/>
          <path class="cls-1" d="m101.47,248.64v3.31h-15.74v-3.31h15.74Z"/>
          <path class="cls-1" d="m111.5,241.56v6.02c3.63,1.11,6.48,2.36,9.54,4.16l-1.69,3.31c-2.46-1.67-5.04-3.15-7.85-4.12v8.09h-3.45v-17.47h3.45Z"/>
        </g>
      </g>
    </g>
  </g>
</svg>