<?xml version="1.0" encoding="UTF-8"?>
<svg id="_レイヤー_2" data-name="レイヤー 2" xmlns="http://www.w3.org/2000/svg" viewBox="0 0 95.06 126">
  <defs>
    <style>
      .cls-1 {
        fill: #0052a1;
      }

      .cls-1, .cls-2 {
        stroke-width: 0px;
      }

      .cls-2 {
        fill: #f8a2a7;
      }
    </style>
  </defs>
  <g id="design">
    <g>
      <g>
        <path class="cls-1" d="m0,27.03C0,15.2,9.63,5.57,21.46,5.57s21.46,9.63,21.46,21.46-9.63,21.46-21.46,21.46S0,38.86,0,27.03Zm35.4,0c0-7.69-6.25-13.94-13.94-13.94s-13.94,6.25-13.94,13.94,6.25,13.94,13.94,13.94,13.94-6.25,13.94-13.94Z"/>
        <path class="cls-1" d="m68.03,0c11.83,0,21.46,9.63,21.46,21.46s-9.63,21.46-21.46,21.46-21.46-9.63-21.46-21.46S56.2,0,68.03,0Zm0,35.4c7.69,0,13.94-6.25,13.94-13.94s-6.25-13.94-13.94-13.94-13.94,6.25-13.94,13.94,6.25,13.94,13.94,13.94Z"/>
        <path class="cls-1" d="m95.06,68.03c0,11.83-9.63,21.46-21.46,21.46s-21.46-9.63-21.46-21.46,9.63-21.46,21.46-21.46,21.46,9.63,21.46,21.46Zm-35.4,0c0,7.69,6.25,13.94,13.94,13.94s13.94-6.25,13.94-13.94-6.25-13.94-13.94-13.94-13.94,6.25-13.94,13.94Z"/>
        <path class="cls-1" d="m27,95.06c-11.83,0-21.46-9.63-21.46-21.46s9.63-21.46,21.46-21.46,21.46,9.63,21.46,21.46-9.63,21.46-21.46,21.46Zm0-35.4c-7.69,0-13.94,6.25-13.94,13.94s6.25,13.94,13.94,13.94,13.94-6.25,13.94-13.94-6.25-13.94-13.94-13.94Z"/>
        <g>
          <circle class="cls-2" cx="33.97" cy="14.52" r="10.73" transform="translate(3.76 35.78) rotate(-58.28)"/>
          <circle class="cls-2" cx="80.54" cy="33.97" r="10.73" transform="translate(9.3 84.62) rotate(-58.28)"/>
          <circle class="cls-2" cx="61.09" cy="80.54" r="10.73" transform="translate(-39.54 90.16) rotate(-58.28)"/>
          <circle class="cls-2" cx="14.48" cy="61.09" r="10.73" transform="translate(-45.1 41.29) rotate(-58.28)"/>
        </g>
      </g>
      <g>
        <path class="cls-1" d="m60.36,112.12c-.79-.73-1.73-1.31-2.78-1.73-1.05-.43-2.2-.64-3.41-.64s-2.33.22-3.38.64c-1.05.43-1.98,1.01-2.78,1.73-.79.73-1.42,1.59-1.88,2.58-.45.99-.68,2.05-.68,3.17s.23,2.19.68,3.18c.45.98,1.08,1.85,1.88,2.58.79.73,1.73,1.31,2.78,1.73,1.05.43,2.19.64,3.38.64s2.36-.22,3.41-.64c1.05-.42,1.98-1.01,2.78-1.73.79-.73,1.42-1.59,1.88-2.58.45-.99.68-2.06.68-3.18s-.23-2.19-.68-3.17c-.45-.99-1.09-1.85-1.88-2.58Zm-6.16,9.99c-2.32,0-4.2-1.9-4.2-4.23s1.88-4.23,4.2-4.23,4.2,1.9,4.2,4.23-1.88,4.23-4.2,4.23Z"/>
        <path class="cls-1" d="m79.79,112.12c-.79-.73-1.73-1.31-2.78-1.73-1.05-.43-2.2-.64-3.41-.64s-2.33.22-3.38.64c-1.05.43-1.98,1.01-2.78,1.73-.79.73-1.42,1.59-1.88,2.58-.45.99-.68,2.05-.68,3.17s.23,2.19.68,3.18c.45.98,1.08,1.85,1.88,2.58.79.73,1.73,1.31,2.78,1.73,1.05.43,2.19.64,3.38.64s2.36-.22,3.41-.64c1.05-.42,1.98-1.01,2.78-1.73.79-.73,1.42-1.59,1.88-2.58.45-.99.68-2.06.68-3.18s-.23-2.19-.68-3.17c-.45-.99-1.09-1.85-1.88-2.58Zm-6.16,9.99c-2.32,0-4.2-1.9-4.2-4.23s1.88-4.23,4.2-4.23,4.2,1.9,4.2,4.23-1.88,4.23-4.2,4.23Z"/>
        <polygon class="cls-1" points="5.54 107.84 12.41 107.84 12.41 125.64 16.99 125.64 16.99 107.84 23.86 107.84 23.86 103.83 5.54 103.83 5.54 107.84"/>
        <path class="cls-1" d="m40.54,110.84c-.48-.37-1.04-.65-1.68-.83-.64-.18-1.33-.26-2.06-.26-.58,0-1.16.05-1.75.16-.58.1-1.16.28-1.73.53-.57.25-1.16.57-1.78.95-.2.12-.39.26-.59.4v-7.96h-4.58v21.81h4.58v-10.79c.54-.39,1.08-.71,1.62-.93.76-.31,1.55-.47,2.38-.47.39,0,.76.06,1.09.17.33.11.62.28.87.48.29.25.51.57.67.97.16.39.23.85.23,1.37v9.19h4.58v-10.53c0-1.02-.17-1.87-.5-2.56-.33-.69-.79-1.26-1.37-1.71Z"/>
        <path class="cls-1" d="m90.51,110.06v-4.21h-4.61v4.21h-2.29v3.49h2.29v6.98c0,.83.12,1.56.36,2.2.24.63.57,1.17.98,1.6.23.27.5.51.81.72.31.21.64.37.98.5.34.12.7.22,1.08.3.37.07.76.11,1.15.11.75,0,1.5-.1,2.24-.3.52-.14,1.04-.34,1.56-.57v-3.41c-.3.15-.61.29-.95.39-.36.11-.73.17-1.11.17-.19,0-.37-.02-.56-.06-.19-.04-.36-.1-.51-.17-.16-.07-.31-.16-.45-.25-.15-.09-.28-.2-.41-.33-.19-.21-.33-.45-.42-.73-.09-.28-.14-.6-.14-.95v-6.2h4.55v-3.49h-4.55Z"/>
      </g>
    </g>
  </g>
</svg>