<?xml version="1.0" encoding="UTF-8"?>
<svg id="_レイヤー_2" data-name="レイヤー 2" xmlns="http://www.w3.org/2000/svg" viewBox="0 0 399.21 317.86">
  <defs>
    <style>
      .cls-1 {
        fill: #0052a1;
      }

      .cls-1, .cls-2, .cls-3, .cls-4, .cls-5, .cls-6, .cls-7, .cls-8, .cls-9, .cls-10, .cls-11, .cls-12, .cls-13, .cls-14, .cls-15 {
        stroke-width: 0px;
      }

      .cls-2 {
        fill: #ffd8af;
      }

      .cls-3 {
        fill: #bebfc1;
      }

      .cls-4 {
        fill: #6d3a27;
      }

      .cls-5 {
        fill: #8a9dce;
      }

      .cls-6 {
        fill: #ef001e;
      }

      .cls-7 {
        fill: #f8a2a7;
      }

      .cls-8 {
        fill: #f0c68e;
      }

      .cls-9 {
        fill: #fee9e8;
      }

      .cls-10 {
        fill: #fff;
      }

      .cls-11 {
        fill: #ffe6bf;
      }

      .cls-12 {
        fill: #140700;
      }

      .cls-13 {
        fill: #f35071;
      }

      .cls-14 {
        fill: #fee7e6;
      }

      .cls-15 {
        fill: #e9bd88;
      }
    </style>
  </defs>
  <g id="character">
    <g>
      <g>
        <path class="cls-8" d="m150.01,146.32s-2.2-5.43-3.77-11.95c-1.11-4.62,2.35-9.12,7.1-9.2,6.84-.12,17.13,1.17,27.47,7.72,1.7-2.24,2.64-4.87,1.78-7.81-1.17-4.01-5.74-6.5-8.86-8.82-2.09-1.56-4.18-3.12-6.38-4.52-5.87-3.74-12.24-6.75-18.64-7.29-3.26,2.46-6.62,4.79-10.03,7-8.49,5.5-12.75,4.83-14.89,2.79-2.09-2-2.05-5.41-.17-7.62,1.48-1.73,2.83-3.62,3.88-5.61-9.06-7-22.3-10.52-35.56-10.52-13.26,0-26.51,3.51-35.56,10.52,1.05,1.99,2.4,3.88,3.88,5.61,1.88,2.2,1.93,5.61-.17,7.62-2.13,2.04-6.39,2.71-14.89-2.79-3.41-2.21-6.77-4.54-10.03-7-6.41.54-12.77,3.55-18.64,7.29-2.2,1.4-4.29,2.96-6.38,4.52-3.12,2.33-7.69,4.81-8.86,8.82-.86,2.94.08,5.56,1.78,7.81,10.33-6.55,20.62-7.83,27.47-7.72,4.75.08,8.21,4.58,7.1,9.2-1.57,6.52-3.77,11.95-3.77,11.95-1,3.21-2.13,6.59-3.3,9.59-5.64,14.38-11.74,50.61,32.19,66.35,8.79,3.15,18.92,4.7,29.18,4.76,10.27-.06,20.39-1.61,29.18-4.76,43.93-15.74,37.83-51.97,32.19-66.35-1.17-2.99-2.31-6.38-3.3-9.59Z"/>
        <path class="cls-11" d="m153.34,125.17c6.87-.12,17.2,1.17,27.56,7.78-1.92,2.51-4.95,4.67-7.41,6.09-3.85,2.22-12,5.61-23.48,7.28,0,0-2.2-5.43-3.77-11.95-1.11-4.62,2.35-9.12,7.1-9.2Zm-122.8,0c-6.87-.12-17.2,1.17-27.56,7.78,1.92,2.51,4.95,4.67,7.41,6.09,3.85,2.22,12,5.61,23.48,7.28,0,0,2.2-5.43,3.77-11.95,1.11-4.62-2.35-9.12-7.1-9.2Z"/>
        <path class="cls-4" d="m138.67,111.44c16.39-10.62,31.73-23.85,39.23-41.88s8.04-38.96,1.02-57.19c-1.81-4.69-4.29-9.45-9.11-11.56-2.7-1.18-5.87-1.14-8.28.55-4.64,3.26-3.45,9.7-.68,14.09,3.17,5.03,8.11,9.05,8.41,15.56.15,3.39-1.9,6.66-5.2,7.4-6.74,1.51-11.16-9.1-18.1-7.64-3.37.71-5.58,3.89-5.71,7.32-.37,9.29,8.46,14.84,8.12,24.12-.12,3.36-2.2,6.5-5.47,7.32-6.66,1.67-11.04-8.07-17.48-6.5-3.08.75-5.08,3.73-5.09,6.91-.01,8.1,7.49,12.85,9.1,20.06,1.33,5.97-1.74,11.88-5.81,16.63-1.88,2.2-1.93,5.61.17,7.62,2.13,2.04,6.39,2.71,14.89-2.79Z"/>
        <path class="cls-4" d="m45.2,111.44c-16.39-10.62-31.73-23.85-39.23-41.88C-1.53,51.53-2.07,30.6,4.95,12.37,6.75,7.68,9.24,2.92,14.06.81c2.7-1.18,5.87-1.14,8.28.55,4.64,3.26,3.45,9.7.68,14.09-3.17,5.03-8.11,9.05-8.41,15.56-.15,3.39,1.9,6.66,5.2,7.4,6.74,1.51,11.16-9.1,18.1-7.64,3.37.71,5.58,3.89,5.71,7.32.37,9.29-8.46,14.84-8.12,24.12.12,3.36,2.2,6.5,5.47,7.32,6.66,1.67,11.04-8.07,17.48-6.5,3.08.75,5.08,3.73,5.09,6.91.01,8.1-7.49,12.85-9.1,20.06-1.33,5.97,1.74,11.88,5.81,16.63,1.88,2.2,1.93,5.61-.17,7.62-2.13,2.04-6.39,2.71-14.89-2.79Z"/>
        <g>
          <rect class="cls-12" x="98.99" y="133.33" width="9.86" height="25.08" rx="4.93" ry="4.93"/>
          <rect class="cls-12" x="75.03" y="133.33" width="9.86" height="25.08" rx="4.93" ry="4.93"/>
        </g>
        <circle class="cls-6" cx="91.94" cy="158.76" r="12.93"/>
        <ellipse class="cls-11" cx="123.52" cy="160.3" rx="11.5" ry="5.08"/>
        <ellipse class="cls-11" cx="60.35" cy="160.3" rx="11.5" ry="5.08"/>
        <path class="cls-10" d="m91.94,177.69c-6.83,0-12.92-.78-18.19-2.19-3.53-.94-6.84,2.27-5.77,5.77,3.12,10.19,11.44,17.45,23.96,17.45s20.84-7.25,23.96-17.45c1.07-3.5-2.24-6.71-5.77-5.77-5.27,1.41-11.36,2.19-18.19,2.19Z"/>
        <path class="cls-8" d="m128.27,257.61h.23s.62,5.67,1.29,13.35l13.22-3.25-1.21-15.37c-5.09,2.62-13.53,5.27-13.53,5.27Z"/>
        <path class="cls-11" d="m130.67,282.38c1.17,1.43,3.37,1.74,5.1,1.04,1.77-.71,3.09-2.24,4.07-3.87,2.13-3.55,2.91-7.63,3.01-11.8l-13.05,3.21c.3,3.5.61,7.43.88,11.42Z"/>
        <path class="cls-2" d="m54.8,266.06c-.05.5-.1,1.02-.15,1.55.05-.53.1-1.05.15-1.55Z"/>
        <path class="cls-2" d="m54.49,269.37c.05-.52.1-1.04.14-1.54-.05.5-.1,1.01-.14,1.54Z"/>
        <path class="cls-11" d="m54.34,271.03l-13.31-3.28c.09,4.17.88,8.25,3.01,11.8.98,1.63,2.3,3.17,4.07,3.87,1.77.71,4.05.38,5.19-1.15.07-.09.11-.19.17-.29.31-4.47.67-8.75,1.01-12.44-.04.48-.09.97-.13,1.48Z"/>
        <path class="cls-8" d="m55.59,257.78c0-.09,0-.16,0-.17,0,0-8.44-2.65-13.53-5.27l-1.21,15.37,13.47,3.32c.61-6.79,1.18-11.91,1.26-13.25Z"/>
        <path class="cls-3" d="m96.34,311.19c2.54.22,5.07.45,7.61.67.84-4.43,4.15-8.32,8.4-9.83,2.77-.99,5.87-.93,8.65.02.14-2.52.27-5.03.41-7.55h-24.54s-.95.03-2.51.05c.11,5.24.66,11.14,1.29,16.76.19-.15.46-.14.7-.12Z"/>
        <path class="cls-3" d="m73.8,302.03c4.25,1.52,7.57,5.4,8.4,9.83,2.54-.22,5.07-.45,7.61-.67.24-.02.51-.03.7.12.62-5.6,1.18-11.49,1.29-16.72-3.53.04-8.46.05-13.34-.09h-13.7c.14,2.52.27,5.03.41,7.55,2.78-.95,5.88-1.01,8.65-.02Z"/>
        <path class="cls-1" d="m56.61,316.45c-.76-4.45,1-9.24,4.46-12.14,3.46-2.9,8.48-3.8,12.73-2.28,4.25,1.52,7.57,5.4,8.4,9.83,2.54-.22,5.07-.45,7.61-.67.25-.02.54-.03.73.14.2.18.21.49.2.76-.05,1.34-.1,2.68-.15,4.03-.01.38-.04.79-.3,1.06-.23.25-.6.33-.94.38-2.74.42-5.53.31-8.3.2-7.52-.3-15.04-.61-22.56-.91"/>
        <path class="cls-1" d="m129.54,316.45c.76-4.45-1-9.24-4.46-12.14s-8.48-3.8-12.73-2.28c-4.25,1.52-7.57,5.4-8.4,9.83-2.54-.22-5.07-.45-7.61-.67-.25-.02-.54-.03-.73.14-.2.18-.21.49-.2.76.05,1.34.1,2.68.15,4.03.01.38.04.79.3,1.06.23.25.6.33.94.38,2.74.42,5.53.31,8.3.2,7.52-.3,15.04-.61,22.56-.91"/>
        <path class="cls-1" d="m135.59,215.32c-4.08,2.59-8.87,4.93-14.47,6.94-8.79,3.15-18.92,4.7-29.18,4.76-10.27-.06-20.39-1.61-29.18-4.76-5.61-2.01-10.39-4.35-14.47-6.94-6.21,10.28-9.24,23.56-9.77,31.49-.1,1.49-.28,2.97.89,3.9,3.8,3.01,16.2,6.9,16.21,6.9,0,.01,0,.08,0,.17-.13,2.25-1.66,15.25-2.42,28.82-.24,4.29,3.17,7.9,7.46,7.9h17.82c9.1.26,18.4,0,18.41,0h26.6c4.3,0,7.7-3.6,7.46-7.9-.8-14.18-2.43-28.99-2.43-28.99h-.23s12.4-3.89,16.21-6.9c1.17-.93.99-2.41.89-3.9-.53-7.93-3.56-21.2-9.77-31.49Z"/>
        <path class="cls-5" d="m91.94,227.02c-6.51-.04-12.96-.68-19.05-1.95,3.03,6.78,8.82,16.11,19.05,21.53,10.24-5.43,16.02-14.76,19.05-21.53-6.09,1.26-12.54,1.91-19.05,1.95Z"/>
      </g>
      <g>
        <path class="cls-14" d="m336.46,222.26c-7.33,2.63-15.59,4.13-24.08,4.59l-4.43,6.28-4.62-6.21c-8.9-.39-17.57-1.92-25.23-4.66-5.05-1.81-9.43-3.89-13.23-6.18-6.71,11.54-9.53,26.49-9.41,33.56,1.53,3.06,17.18,7.97,17.18,7.97,0,.01,0,.08,0,.17-.14,2.48-.55,20.91-.97,36.33-.06,2.06,1.6,3.76,3.66,3.76h63.94c2.06,0,3.71-1.7,3.66-3.76-.42-15.42-.83-33.85-.97-36.33,0-.09,0-.16,0-.17,0,0,15.66-4.91,17.18-7.97.12-7.07-2.71-22.01-9.41-33.56-3.8,2.29-8.19,4.37-13.23,6.18Z"/>
        <g>
          <path class="cls-8" d="m365.35,146.32s-2.2-5.43-3.77-11.95c-1.11-4.62,2.35-9.12,7.1-9.2,6.84-.12,17.13,1.17,27.47,7.72,1.7-2.24,2.64-4.87,1.78-7.81-1.17-4.01-5.74-6.5-8.86-8.82-2.09-1.56-4.18-3.12-6.38-4.52-5.87-3.74-12.24-6.75-18.64-7.29-3.26,2.46-6.62,4.79-10.03,7-8.49,5.5-12.75,4.83-14.89,2.79-2.09-2-2.05-5.41-.17-7.62,1.48-1.73,2.83-3.62,3.88-5.61-9.06-7-22.3-10.52-35.56-10.52-13.26,0-26.51,3.51-35.56,10.52,1.05,1.99,2.4,3.88,3.88,5.61,1.88,2.2,1.93,5.61-.17,7.62-2.13,2.04-6.39,2.71-14.89-2.79-3.41-2.21-6.77-4.54-10.03-7-6.41.54-12.77,3.55-18.64,7.29-2.2,1.4-4.29,2.96-6.38,4.52-3.12,2.33-7.69,4.81-8.86,8.82-.86,2.94.08,5.56,1.78,7.81,10.33-6.55,20.62-7.83,27.47-7.72,4.75.08,8.21,4.58,7.1,9.2-1.57,6.52-3.77,11.95-3.77,11.95-1,3.21-2.13,6.59-3.3,9.59-5.64,14.38-11.74,50.61,32.19,66.35,8.79,3.15,18.92,4.7,29.18,4.76,10.27-.06,20.39-1.61,29.18-4.76,43.93-15.74,37.83-51.97,32.19-66.35-1.17-2.99-2.31-6.38-3.3-9.59Z"/>
          <path class="cls-11" d="m368.67,125.17c6.87-.12,17.2,1.17,27.56,7.78-1.92,2.51-4.95,4.67-7.41,6.09-3.85,2.22-12,5.61-23.48,7.28,0,0-2.2-5.43-3.77-11.95-1.11-4.62,2.35-9.12,7.1-9.2Zm-122.8,0c-6.87-.12-17.2,1.17-27.56,7.78,1.92,2.51,4.95,4.67,7.41,6.09,3.85,2.22,12,5.61,23.48,7.28,0,0,2.2-5.43,3.77-11.95,1.11-4.62-2.35-9.12-7.1-9.2Z"/>
          <path class="cls-4" d="m354.01,111.44c16.39-10.62,31.73-23.85,39.23-41.88s8.04-38.96,1.02-57.19c-1.81-4.69-4.29-9.45-9.11-11.56-2.7-1.18-5.87-1.14-8.28.55-4.64,3.26-3.45,9.7-.68,14.09,3.17,5.03,8.11,9.05,8.41,15.56.15,3.39-1.9,6.66-5.2,7.4-6.74,1.51-11.16-9.1-18.1-7.64-3.37.71-5.58,3.89-5.71,7.32-.37,9.29,8.46,14.84,8.12,24.12-.12,3.36-2.2,6.5-5.47,7.32-6.66,1.67-11.04-8.07-17.48-6.5-3.08.75-5.08,3.73-5.09,6.91-.01,8.1,7.49,12.85,9.1,20.06,1.33,5.97-1.74,11.88-5.81,16.63-1.88,2.2-1.93,5.61.17,7.62,2.13,2.04,6.39,2.71,14.89-2.79Z"/>
          <path class="cls-4" d="m260.54,111.44c-16.39-10.62-31.73-23.85-39.23-41.88-7.5-18.04-8.04-38.96-1.02-57.19,1.81-4.69,4.29-9.45,9.11-11.56,2.7-1.18,5.87-1.14,8.28.55,4.64,3.26,3.45,9.7.68,14.09-3.17,5.03-8.11,9.05-8.41,15.56-.15,3.39,1.9,6.66,5.2,7.4,6.74,1.51,11.16-9.1,18.1-7.64,3.37.71,5.58,3.89,5.71,7.32.37,9.29-8.46,14.84-8.12,24.12.12,3.36,2.2,6.5,5.47,7.32,6.66,1.67,11.04-8.07,17.48-6.5,3.08.75,5.08,3.73,5.09,6.91.01,8.1-7.49,12.85-9.1,20.06-1.33,5.97,1.74,11.88,5.81,16.63,1.88,2.2,1.93,5.61-.17,7.62-2.13,2.04-6.39,2.71-14.89-2.79Z"/>
          <ellipse class="cls-11" cx="338.86" cy="160.3" rx="11.5" ry="5.08"/>
          <ellipse class="cls-11" cx="275.69" cy="160.3" rx="11.5" ry="5.08"/>
          <path class="cls-10" d="m307.27,177.69c-6.83,0-12.92-.78-18.19-2.19-3.53-.94-6.84,2.27-5.77,5.77,3.12,10.19,11.44,17.45,23.96,17.45s20.84-7.25,23.96-17.45c1.07-3.5-2.24-6.71-5.77-5.77-5.27,1.41-11.36,2.19-18.19,2.19Z"/>
          <g>
            <path class="cls-12" d="m328.11,135.89c-.64-.88-1.88-1.08-2.77-.44l-1.49,1.08c-.7-1.87-2.49-3.21-4.6-3.21h0c-2.72,0-4.93,2.21-4.93,4.93v15.22c0,2.72,2.21,4.93,4.93,4.93h0c2.72,0,4.93-2.21,4.93-4.93v-12.28l3.49-2.54c.88-.64,1.08-1.88.44-2.77Z"/>
            <path class="cls-12" d="m295.29,133.33h0c-2.11,0-3.9,1.34-4.6,3.21l-1.49-1.08c-.88-.64-2.12-.45-2.77.44-.64.88-.45,2.12.44,2.77l3.49,2.54v12.28c0,2.72,2.21,4.93,4.93,4.93h0c2.72,0,4.93-2.21,4.93-4.93v-15.22c0-2.72-2.21-4.93-4.93-4.93Z"/>
          </g>
          <circle class="cls-6" cx="307.27" cy="158.76" r="12.93"/>
        </g>
        <path class="cls-8" d="m272.61,257.78c0-.09,0-.16,0-.17,0,0-7.38-2.32-12.5-4.76l-1.23,14.86,13.34,3.25c.17-6.78.31-11.95.38-13.18Z"/>
        <path class="cls-11" d="m272.24,270.96l-13.04-3.18c.1,4.16.88,8.23,3.01,11.77.98,1.63,2.3,3.17,4.07,3.87,1.77.71,4.05.38,5.19-1.15.22-.29.38-.62.51-.96.09-3.65.18-7.18.26-10.36Z"/>
        <path class="cls-8" d="m341.92,257.61s0,.08,0,.17c.07,1.23.21,6.4.38,13.18l13.34-3.25-1.23-14.86c-5.12,2.44-12.5,4.75-12.5,4.76Z"/>
        <path class="cls-11" d="m342.57,281.32c.13.34.29.67.51.96,1.14,1.53,3.42,1.85,5.19,1.15,1.77-.71,3.09-2.24,4.07-3.87,2.12-3.54,2.91-7.61,3.01-11.77l-13.04,3.18c.08,3.18.17,6.71.26,10.36Z"/>
        <path class="cls-8" d="m307.27,221.35c-1,0-2.01,5.63-3.01,5.6h0c1.01,1.36,2.02,2.71,3.01,4.07.99-1.36,2-2.71,3.01-4.07h0c-1,.03-2-5.6-3.01-5.6Z"/>
        <polygon class="cls-7" points="299.33 231.7 297.02 231.72 297.54 297.87 299.85 297.87 299.33 231.7"/>
        <circle class="cls-13" cx="307.27" cy="245.55" r="4.64"/>
        <path class="cls-13" d="m342.35,272.58l-19.8,4.05v2.94l19.88-4.03c-.03-1.01-.05-1.99-.07-2.95Z"/>
        <path class="cls-13" d="m292,276.63l-19.8-4.05c-.02.96-.05,1.95-.07,2.95l19.88,4.03v-2.94Z"/>
        <g>
          <path class="cls-9" d="m301.13,226.79c-5.74-.37-11.35-1.22-16.63-2.58,0,.8.03,1.6.09,2.42.13,1.78.45,4.08,1.7,6,2.2,3.37,6.81,4.83,10.22,4.53,3.67-.33,9.19-4.18,9.02-4.41-1.45-1.99-2.92-3.98-4.4-5.96Z"/>
          <path class="cls-9" d="m313.41,226.79c-1.48,1.98-2.95,3.97-4.4,5.96-.17.24,5.35,4.09,9.02,4.41,3.41.3,8.01-1.16,10.21-4.53,1.26-1.93,1.57-4.22,1.71-6,.06-.81.09-1.62.09-2.42-5.28,1.36-10.89,2.2-16.63,2.58Z"/>
        </g>
        <path class="cls-13" d="m330.04,224.21c0,.8-.03,1.6-.09,2.42-.13,1.78-.45,4.08-1.71,6-2.2,3.37-6.8,4.83-10.21,4.53-3.67-.33-9.19-4.18-9.02-4.41,1.45-1.99,2.92-3.98,4.4-5.96-1.04.07-2.08.12-3.13.16-1.01,1.36-2.01,2.71-3.01,4.07-.99-1.36-2-2.71-3.01-4.07-1.05-.04-2.09-.09-3.13-.16,1.48,1.98,2.95,3.97,4.4,5.96.17.24-5.35,4.09-9.02,4.41-3.41.3-8.01-1.16-10.22-4.53-1.26-1.93-1.57-4.22-1.7-6-.06-.81-.09-1.62-.09-2.42-.81-.21-1.61-.43-2.41-.66-.01,1.08,0,2.16.08,3.26.16,2.07.53,4.76,2.09,7.15,2.6,3.98,7.48,5.67,11.36,5.67.38,0,.75-.02,1.1-.05,4.14-.37,7.54-2.34,10.54-4.18,3.01,1.84,6.4,3.81,10.54,4.18.36.03.72.05,1.1.05,3.87,0,8.76-1.69,11.36-5.67,1.56-2.39,1.94-5.08,2.09-7.15.08-1.1.1-2.18.08-3.26-.79.23-1.6.46-2.41.66Z"/>
        <g>
          <path class="cls-15" d="m309.11,311.19c2.54.22,5.07.45,7.61.67.84-4.43,4.15-8.32,8.4-9.83.81-.29,1.65-.46,2.5-.58.05-1.19.1-2.39.14-3.58h-19.99c.16,4.32.5,8.91.86,13.34.15-.03.32-.03.47-.02Z"/>
          <path class="cls-15" d="m285.21,301.45c.85.12,1.69.29,2.5.58,4.25,1.52,7.57,5.4,8.4,9.83,2.54-.22,5.07-.45,7.61-.67.16-.01.32-.02.47.02.37-4.43.7-9.02.86-13.34h-19.99c.05,1.19.1,2.39.14,3.58Z"/>
        </g>
        <path class="cls-13" d="m270.52,316.45c-.76-4.45,1-9.24,4.46-12.14s8.48-3.8,12.73-2.28c4.25,1.52,7.57,5.4,8.4,9.83,2.54-.22,5.07-.45,7.61-.67.25-.02.54-.03.73.14.2.18.21.49.2.76-.05,1.34-.1,2.68-.15,4.03-.01.38-.04.79-.3,1.06-.23.25-.6.33-.94.38-2.74.42-5.53.31-8.3.2-7.52-.3-15.04-.61-22.56-.91m69.92-.39c.76-4.45-1-9.24-4.46-12.14-3.46-2.9-8.48-3.8-12.73-2.28-4.25,1.52-7.57,5.4-8.4,9.83-2.54-.22-5.07-.45-7.61-.67-.25-.02-.54-.03-.73.14-.2.18-.21.49-.2.76.05,1.34.1,2.68.15,4.03.01.38.04.79.3,1.06.23.25.6.33.94.38,2.74.42,5.53.31,8.3.2,7.52-.3,15.04-.61,22.56-.91"/>
      </g>
    </g>
  </g>
</svg>