<?xml version="1.0" encoding="UTF-8"?>
<svg id="_レイヤー_2" data-name="レイヤー 2" xmlns="http://www.w3.org/2000/svg" viewBox="0 0 219.79 81.57">
  <defs>
    <style>
      .cls-1 {
        fill: #0052a1;
      }

      .cls-1, .cls-2 {
        stroke-width: 0px;
      }

      .cls-2 {
        fill: #f8a2a7;
      }
    </style>
  </defs>
  <g id="design">
    <g>
      <g>
        <g>
          <polygon class="cls-1" points="96.72 24.49 106.04 24.49 106.04 49.01 112.32 49.01 112.32 24.49 121.63 24.49 121.63 19.1 96.72 19.1 96.72 24.49"/>
          <path class="cls-1" d="m144.88,28.72c-.66-.51-1.42-.89-2.31-1.13-.88-.24-1.82-.36-2.82-.36-.8,0-1.6.07-2.39.21-.8.14-1.59.38-2.37.73-.78.34-1.6.78-2.44,1.3-.36.23-.72.48-1.09.73v-11.1h-6.28v29.91h6.28v-14.6c.84-.63,1.67-1.12,2.5-1.46,1.04-.43,2.13-.64,3.27-.64.54,0,1.04.08,1.5.24.46.16.86.38,1.2.66.4.34.7.78.92,1.32s.32,1.17.32,1.88v12.61h6.28v-14.44c0-1.4-.23-2.56-.68-3.5-.46-.94-1.08-1.72-1.88-2.35Z"/>
          <path class="cls-1" d="m198.91,30.47c-1.1-1-2.37-1.79-3.82-2.37-1.45-.58-3.02-.88-4.7-.88s-3.2.29-4.66.88-2.73,1.37-3.82,2.37c-1.1,1-1.96,2.17-2.59,3.53-.63,1.35-.94,2.8-.94,4.34s.31,2.98.94,4.34c.63,1.35,1.49,2.53,2.59,3.53,1.1,1,2.37,1.79,3.82,2.37,1.45.58,3.01.88,4.66.88s3.25-.29,4.7-.88c1.45-.58,2.73-1.37,3.82-2.37s1.96-2.17,2.59-3.53c.63-1.35.94-2.8.94-4.34s-.31-2.98-.94-4.34c-.63-1.35-1.49-2.53-2.59-3.53Zm-8.48,13.7c-3.23,0-5.84-2.61-5.84-5.84s2.61-5.84,5.84-5.84,5.84,2.61,5.84,5.84-2.61,5.84-5.84,5.84Z"/>
          <path class="cls-1" d="m171.69,30.47c-1.1-1-2.37-1.79-3.82-2.37-1.45-.58-3.02-.88-4.7-.88s-3.2.29-4.66.88-2.73,1.37-3.82,2.37c-1.1,1-1.96,2.17-2.59,3.53-.63,1.35-.94,2.8-.94,4.34s.31,2.98.94,4.34c.63,1.35,1.49,2.53,2.59,3.53,1.1,1,2.37,1.79,3.82,2.37,1.45.58,3.01.88,4.66.88s3.25-.29,4.7-.88c1.45-.58,2.73-1.37,3.82-2.37s1.96-2.17,2.59-3.53c.63-1.35.94-2.8.94-4.34s-.31-2.98-.94-4.34c-.63-1.35-1.49-2.53-2.59-3.53Zm-8.48,13.7c-3.23,0-5.84-2.61-5.84-5.84s2.61-5.84,5.84-5.84,5.84,2.61,5.84,5.84-2.61,5.84-5.84,5.84Z"/>
          <path class="cls-1" d="m219.79,32.43v-4.79h-5.68v-5.77h-6.32v5.77h-3.08v4.79h3.08v9.57c0,1.14.16,2.14.49,3.01.33.87.78,1.6,1.35,2.2.31.37.68.7,1.11.98.43.29.88.51,1.35.68.47.17.96.31,1.47.41.51.1,1.04.15,1.58.15,1.03,0,2.05-.14,3.08-.41.53-.14,1.05-.31,1.58-.53v-4.66c-.24.1-.49.19-.75.27-.5.16-1,.24-1.52.24-.26,0-.51-.03-.77-.09-.26-.06-.49-.14-.7-.24-.21-.1-.42-.21-.62-.34-.2-.13-.38-.28-.56-.45-.26-.28-.45-.62-.58-1s-.19-.82-.19-1.3v-8.5h5.68Z"/>
        </g>
        <g>
          <path class="cls-1" d="m137.41,66.85c3.15-1.27,6.38-3.85,8.03-8.08h-7.15v-2.23h10.29c-.4,2.27-1.34,4.41-2.67,6.3,2.26,1.65,3.54,2.82,4.84,4.13l-1.99,1.95c-1.8-2.08-3.24-3.48-4.26-4.3-1.61,1.8-3.52,3.29-5.75,4.22l-1.34-1.98Z"/>
          <path class="cls-1" d="m164.55,61.13v2.46h-11.71v-2.46h11.71Z"/>
          <path class="cls-1" d="m172.01,55.87v3.51c2.7.83,4.82,1.75,7.09,3.1l-1.25,2.46c-1.83-1.24-3.74-2.34-5.84-3.07v6.99h-2.57v-12.99h2.57Z"/>
        </g>
      </g>
      <path class="cls-1" d="m58.38,0c10.15,0,18.41,8.26,18.41,18.41s-8.26,18.41-18.41,18.41-18.41-8.26-18.41-18.41S48.22,0,58.38,0Zm0,30.38c6.6,0,11.96-5.37,11.96-11.96s-5.37-11.96-11.96-11.96-11.96,5.37-11.96,11.96,5.37,11.96,11.96,11.96Z"/>
      <g>
        <path class="cls-1" d="m0,23.2C0,13.04,8.26,4.78,18.41,4.78s18.41,8.26,18.41,18.41-8.26,18.41-18.41,18.41S0,33.35,0,23.2Zm30.38,0c0-6.6-5.37-11.96-11.96-11.96s-11.96,5.37-11.96,11.96,5.37,11.96,11.96,11.96,11.96-5.37,11.96-11.96Z"/>
        <path class="cls-1" d="m81.57,58.38c0,10.15-8.26,18.41-18.41,18.41s-18.41-8.26-18.41-18.41,8.26-18.41,18.41-18.41,18.41,8.26,18.41,18.41Zm-30.38,0c0,6.6,5.37,11.96,11.96,11.96s11.96-5.37,11.96-11.96-5.37-11.96-11.96-11.96-11.96,5.37-11.96,11.96Z"/>
      </g>
      <path class="cls-1" d="m23.17,81.57c-10.15,0-18.41-8.26-18.41-18.41s8.26-18.41,18.41-18.41,18.41,8.26,18.41,18.41-8.26,18.41-18.41,18.41Zm0-30.38c-6.6,0-11.96,5.37-11.96,11.96s5.37,11.96,11.96,11.96,11.96-5.37,11.96-11.96-5.37-11.96-11.96-11.96Z"/>
      <g>
        <circle class="cls-2" cx="29.15" cy="12.46" r="9.21" transform="translate(3.23 30.71) rotate(-58.28)"/>
        <circle class="cls-2" cx="69.12" cy="29.15" r="9.21" transform="translate(7.98 72.62) rotate(-58.28)"/>
        <circle class="cls-2" cx="52.42" cy="69.12" r="9.21" transform="translate(-33.93 77.37) rotate(-58.28)"/>
        <circle class="cls-2" cx="12.43" cy="52.42" r="9.21" transform="translate(-38.7 35.43) rotate(-58.28)"/>
      </g>
    </g>
  </g>
</svg>