<?xml version="1.0" encoding="UTF-8"?>
<svg id="_レイヤー_2" data-name="レイヤー 2" xmlns="http://www.w3.org/2000/svg" viewBox="0 0 95.06 95.06">
  <defs>
    <style>
      .cls-1 {
        fill: #0052a1;
      }

      .cls-1, .cls-2 {
        stroke-width: 0px;
      }

      .cls-2 {
        fill: #f8a2a7;
      }
    </style>
  </defs>
  <g id="design">
    <g>
      <path class="cls-1" d="m0,27.03C0,15.2,9.63,5.57,21.46,5.57s21.46,9.63,21.46,21.46-9.63,21.46-21.46,21.46S0,38.86,0,27.03Zm35.4,0c0-7.69-6.25-13.94-13.94-13.94s-13.94,6.25-13.94,13.94,6.25,13.94,13.94,13.94,13.94-6.25,13.94-13.94Z"/>
      <path class="cls-1" d="m68.03,0c11.83,0,21.46,9.63,21.46,21.46s-9.63,21.46-21.46,21.46-21.46-9.63-21.46-21.46S56.2,0,68.03,0Zm0,35.4c7.69,0,13.94-6.25,13.94-13.94s-6.25-13.94-13.94-13.94-13.94,6.25-13.94,13.94,6.25,13.94,13.94,13.94Z"/>
      <path class="cls-1" d="m95.06,68.03c0,11.83-9.63,21.46-21.46,21.46s-21.46-9.63-21.46-21.46,9.63-21.46,21.46-21.46,21.46,9.63,21.46,21.46Zm-35.4,0c0,7.69,6.25,13.94,13.94,13.94s13.94-6.25,13.94-13.94-6.25-13.94-13.94-13.94-13.94,6.25-13.94,13.94Z"/>
      <path class="cls-1" d="m27,95.06c-11.83,0-21.46-9.63-21.46-21.46s9.63-21.46,21.46-21.46,21.46,9.63,21.46,21.46-9.63,21.46-21.46,21.46Zm0-35.4c-7.69,0-13.94,6.25-13.94,13.94s6.25,13.94,13.94,13.94,13.94-6.25,13.94-13.94-6.25-13.94-13.94-13.94Z"/>
      <g>
        <circle class="cls-2" cx="33.97" cy="14.52" r="10.73" transform="translate(3.76 35.78) rotate(-58.28)"/>
        <circle class="cls-2" cx="80.54" cy="33.97" r="10.73" transform="translate(9.3 84.62) rotate(-58.28)"/>
        <circle class="cls-2" cx="61.09" cy="80.54" r="10.73" transform="translate(-39.54 90.16) rotate(-58.28)"/>
        <circle class="cls-2" cx="14.48" cy="61.09" r="10.73" transform="translate(-45.1 41.29) rotate(-58.28)"/>
      </g>
    </g>
  </g>
</svg>